<?xml version="1.0" encoding="utf-8"?>
<!-- Generator: Adobe Illustrator 23.1.0, SVG Export Plug-In . SVG Version: 6.00 Build 0)  -->
<svg version="1.1" id="Capa_1" xmlns="http://www.w3.org/2000/svg" xmlns:xlink="http://www.w3.org/1999/xlink" x="0px" y="0px"
	 viewBox="0 0 512 512" style="enable-background:new 0 0 512 512;" xml:space="preserve">
<style type="text/css">
	.st0{fill:#95A5A5;}
	.st1{fill:#2C3E50;}
	.st2{fill:#E24B53;}
	.st3{fill:#BC4940;}
	.st4{fill:#E57E25;}
	.st5{fill:#F0C419;}
	.st6{fill:#67B9CC;}
	.st7{fill:#802F34;}
	.st8{fill:#7F8C8D;}
	.st9{fill:#BDC3C7;}
</style>
<g>
	<path class="st0" d="M68.3,362.7c-4.7,0-8.5-3.8-8.5-8.5V123.7c0-4.7,3.8-8.5,8.5-8.5c4.7,0,8.5,3.8,8.5,8.5v230.4
		C76.8,358.8,73,362.7,68.3,362.7z"/>
	<g>
		<path class="st1" d="M213.3,422.4h51.2v59.7c0,9.4-7.6,17.1-17.1,17.1h-17.1c-9.4,0-17.1-7.6-17.1-17.1V422.4z"/>
		<path class="st1" d="M409.6,422.4h51.2v59.7c0,9.4-7.6,17.1-17.1,17.1h-17.1c-9.4,0-17.1-7.6-17.1-17.1L409.6,422.4L409.6,422.4z"
			/>
	</g>
	<path class="st2" d="M473.2,4.3H201c-17.8,1.1-31.3,16.4-30.3,34.1v349.9l20.2,46.4c1.1,2.8,3.8,4.7,6.8,4.8h278.8
		c3-0.1,5.7-2,6.8-4.8l20.2-46.4V38.4C504.5,20.6,490.9,5.4,473.2,4.3z"/>
	<path class="st3" d="M503.5,388.3l-20.2,46.4c-1.1,2.8-3.8,4.7-6.8,4.8H197.7c-3-0.1-5.7-2-6.8-4.8l-20.2-46.4H503.5z"/>
	<path class="st4" d="M221.9,38.4h230.4c9.4,0,17.1,7.6,17.1,17.1V64c0,9.4-7.6,17.1-17.1,17.1H221.9c-9.4,0-17.1-7.6-17.1-17.1
		v-8.5C204.8,46,212.4,38.4,221.9,38.4z"/>
	<g>
		<circle class="st5" cx="230.4" cy="328.5" r="25.6"/>
		<circle class="st5" cx="443.7" cy="328.5" r="25.6"/>
	</g>
	<path class="st6" d="M221.9,115.2h230.4c9.4,0,17.1,7.6,17.1,17.1v119.5c0,9.4-7.6,17.1-17.1,17.1H221.9c-9.4,0-17.1-7.6-17.1-17.1
		V132.3C204.8,122.8,212.4,115.2,221.9,115.2z"/>
	<path class="st7" d="M307.2,345.6h59.7c9.4,0,17.1,7.6,17.1,17.1v25.6h-93.9v-25.6C290.1,353.2,297.8,345.6,307.2,345.6z"/>
	<circle class="st2" cx="68.3" cy="98.1" r="59.7"/>
	<path class="st8" d="M59.7,320h17.1c9.4,0,17.1,7.6,17.1,17.1v162.1H42.7V337.1C42.7,327.6,50.3,320,59.7,320z"/>
	<path class="st9" d="M503.5,507.7H8.5c-4.7,0-8.5-3.8-8.5-8.5c0-4.7,3.8-8.5,8.5-8.5h494.9c4.7,0,8.5,3.8,8.5,8.5
		C512,503.9,508.2,507.7,503.5,507.7z"/>
</g>
</svg>
