<?xml version="1.0" encoding="utf-8"?>
<!-- Generator: Adobe Illustrator 23.1.0, SVG Export Plug-In . SVG Version: 6.00 Build 0)  -->
<svg version="1.1" id="Layer_1" xmlns="http://www.w3.org/2000/svg" xmlns:xlink="http://www.w3.org/1999/xlink" x="0px" y="0px"
	 viewBox="0 0 500 500" style="enable-background:new 0 0 500 500;" xml:space="preserve">
<style type="text/css">
	.st0{fill:#E5E5E5;}
	.st1{fill:#95A5A5;}
	.st2{fill:#2C3E50;}
	.st3{fill:#CC4B4C;}
	.st4{fill:#C03A2B;}
	.st5{fill:#E57E25;}
	.st6{fill:#F0C419;}
	.st7{fill:#67B9CC;}
	.st8{fill:#802F34;}
	.st9{fill:#7F8C8D;}
	.st10{fill:#BDC3C7;}
</style>
<circle class="st0" cx="249.5" cy="252.5" r="236.5"/>
<g>
	<path class="st1" d="M136.34,309.98c-2.76,0-5-2.24-5-5V169.95c0-2.76,2.24-5,5-5c2.76,0,5,2.24,5,5v135.03
		C141.34,307.74,139.1,309.98,136.34,309.98z"/>
	<g>
		<path class="st2" d="M221.36,344.99h30.01V380c0,5.52-4.48,10-10,10h-10c-5.52,0-10-4.48-10-10V344.99z"/>
		<path class="st2" d="M336.39,344.99h30.01V380c0,5.52-4.48,10-10,10h-10c-5.52,0-10-4.48-10-10L336.39,344.99L336.39,344.99z"/>
	</g>
	<path class="st3" d="M373.65,99.93H214.11c-10.41,0.66-18.34,9.59-17.75,20v205.05l11.84,27.2c0.65,1.65,2.22,2.75,3.99,2.8h163.38
		c1.77-0.05,3.34-1.15,3.99-2.8l11.84-27.2V119.94C391.98,109.52,384.06,100.59,373.65,99.93z"/>
	<path class="st4" d="M391.4,324.98l-11.84,27.2c-0.65,1.65-2.22,2.75-3.99,2.8H212.19c-1.77-0.05-3.34-1.15-3.99-2.8l-11.84-27.2
		H391.4z"/>
	<path class="st5" d="M226.36,119.94h135.03c5.52,0,10,4.48,10,10v5c0,5.52-4.48,10-10,10H226.36c-5.52,0-10-4.48-10-10v-5
		C216.36,124.42,220.84,119.94,226.36,119.94z"/>
	<g>
		<circle class="st6" cx="231.36" cy="289.98" r="15"/>
		<circle class="st6" cx="356.39" cy="289.98" r="15"/>
	</g>
	<path class="st7" d="M226.36,164.95h135.03c5.52,0,10,4.48,10,10v70.02c0,5.52-4.48,10-10,10H226.36c-5.52,0-10-4.48-10-10v-70.02
		C216.36,169.43,220.84,164.95,226.36,164.95z"/>
	<path class="st8" d="M276.37,299.98h35.01c5.52,0,10,4.48,10,10v15h-55.01v-15C266.37,304.46,270.85,299.98,276.37,299.98z"/>
	<circle class="st3" cx="136.34" cy="154.95" r="35.01"/>
	<path class="st9" d="M131.34,284.98h10c5.52,0,10,4.48,10,10V390h-30.01v-95.02C121.34,289.45,125.82,284.98,131.34,284.98z"/>
	<path class="st10" d="M391.4,395H101.33c-2.76,0-5-2.24-5-5c0-2.76,2.24-5,5-5H391.4c2.76,0,5,2.24,5,5
		C396.4,392.76,394.16,395,391.4,395z"/>
</g>
</svg>
