<?xml version="1.0" encoding="utf-8"?>
<!-- Generator: Adobe Illustrator 23.1.0, SVG Export Plug-In . SVG Version: 6.00 Build 0)  -->
<svg version="1.1" id="Layer_1" xmlns="http://www.w3.org/2000/svg" xmlns:xlink="http://www.w3.org/1999/xlink" x="0px" y="0px"
	 viewBox="0 0 512 512" style="enable-background:new 0 0 512 512;" xml:space="preserve">
<style type="text/css">
	.st0{fill:#2196F3;}
	.st1{fill:#E2E2E2;}
	.st2{fill:#607D8B;}
	.st3{fill:#4CAF50;}
</style>
<path class="st0" d="M426.7,101.3v48H0v-48c0-32.4,26.2-58.7,58.7-58.7H368C400.4,42.7,426.7,68.9,426.7,101.3z"/>
<path class="st1" d="M202.7,373.3c0-94.1,76.6-170.7,170.7-170.7c18.6,0,36.5,3.1,53.3,8.7v-62H0v197.3c0,32.4,26.2,58.7,58.7,58.7
	h147.1C203.8,394.9,202.7,384.3,202.7,373.3z"/>
<path class="st2" d="M106.7,106.7c-11.8,0-21.3-9.6-21.3-21.3v-64C85.3,9.6,94.9,0,106.7,0C118.4,0,128,9.6,128,21.3v64
	C128,97.1,118.4,106.7,106.7,106.7z"/>
<path class="st2" d="M320,106.7c-11.8,0-21.3-9.6-21.3-21.3v-64C298.7,9.6,308.2,0,320,0s21.3,9.6,21.3,21.3v64
	C341.3,97.1,331.8,106.7,320,106.7z"/>
<path class="st3" d="M373.3,234.7c-76.5,0-138.7,62.2-138.7,138.7c0,76.5,62.2,138.7,138.7,138.7c76.5,0,138.7-62.2,138.7-138.7
	C512,296.9,449.8,234.7,373.3,234.7z M437.5,350l-69.3,80c-3.9,4.5-9.5,7.1-15.4,7.4c-0.3,0-0.5,0-0.8,0c-5.7,0-11.1-2.2-15.1-6.3
	l-37.3-37.3c-8.3-8.3-8.3-21.8,0-30.2c8.3-8.3,21.8-8.3,30.2,0l21.1,21.1l54.3-62.7c7.7-8.9,21.2-9.8,30.1-2.2
	C444.2,327.6,445.2,341.1,437.5,350z"/>
</svg>
