<?xml version="1.0" encoding="utf-8"?>
<!-- Generator: Adobe Illustrator 23.1.0, SVG Export Plug-In . SVG Version: 6.00 Build 0)  -->
<svg version="1.1" id="Layer_1" xmlns="http://www.w3.org/2000/svg" xmlns:xlink="http://www.w3.org/1999/xlink" x="0px" y="0px"
	 viewBox="0 0 500 500" style="enable-background:new 0 0 500 500;" xml:space="preserve">
<style type="text/css">
	.st0{fill:#E5E5E5;}
	.st1{fill:#FFFFFF;}
	.st2{fill:#1BB7EA;}
	.st3{fill:#1F4254;}
	.st4{fill:#1CA6D4;}
</style>
<circle class="st0" cx="249.5" cy="252.5" r="236.5"/>
<path class="st1" d="M102.32,200.66l-0.04,171.9c0,12.89,10.55,23.44,23.44,23.44H375.7c12.89,0,23.44-10.55,23.44-23.44v-171.9
	H102.32"/>
<path class="st2" d="M102.32,130.35v70.31h296.86v-70.31C399.18,130.35,102.32,130.35,102.32,130.35z M151.15,165.5
	c0-11.86,9.62-21.48,21.48-21.48c11.87,0,21.48,9.62,21.48,21.48c0,11.86-9.62,21.48-21.48,21.48
	C160.76,186.99,151.15,177.37,151.15,165.5z M307.39,165.5c0-11.86,9.62-21.48,21.48-21.48c11.87,0,21.48,9.62,21.48,21.48
	c0,11.86-9.62,21.48-21.48,21.48C317,186.99,307.39,177.37,307.39,165.5z"/>
<g>
	<path class="st3" d="M166.73,110.86v50.78c0,3.23,2.63,5.86,5.86,5.86c3.23,0,5.86-2.63,5.86-5.86v-50.78
		c0-3.24-2.63-5.86-5.86-5.86C169.36,105,166.73,107.62,166.73,110.86"/>
	<path class="st3" d="M322.97,110.86v50.78c0,3.23,2.63,5.86,5.86,5.86c3.23,0,5.86-2.63,5.86-5.86v-50.78
		c0-3.24-2.63-5.86-5.86-5.86C325.6,105,322.97,107.62,322.97,110.86"/>
</g>
<g>
	<path class="st2" d="M313.21,298.35c0,34.51-27.98,62.5-62.5,62.5s-62.5-27.99-62.5-62.5c0-34.51,27.98-62.5,62.5-62.5
		S313.21,263.83,313.21,298.35"/>
	<polyline class="st2" points="278.31,278.05 278.31,278.05 278.31,278.05 278.31,278.05 	"/>
</g>
<path class="st4" d="M279.05,278.78c1.3,2.26,1.07,5.15-0.88,7.07l-27.98,27.42l36.32,36.31c12.7-8.89,21.94-22.37,25.31-38.04
	L279.05,278.78z"/>
<path class="st3" d="M212.82,278.31l37.33,34.99l28.01-27.45c2.31-2.27,2.35-5.97,0.08-8.28s-5.97-2.35-8.28-0.08l-19.99,19.59
	l-29.14-27.31c-2.36-2.21-6.07-2.09-8.28,0.27C210.34,272.39,210.46,276.1,212.82,278.31z"/>
</svg>
