<?xml version="1.0" encoding="utf-8"?>
<!-- Generator: Adobe Illustrator 23.1.0, SVG Export Plug-In . SVG Version: 6.00 Build 0)  -->
<svg version="1.1" id="Layer_1" xmlns="http://www.w3.org/2000/svg" xmlns:xlink="http://www.w3.org/1999/xlink" x="0px" y="0px"
	 viewBox="0 0 500 500" style="enable-background:new 0 0 500 500;" xml:space="preserve">
<style type="text/css">
	.st0{fill:#E5E5E5;}
	.st1{fill:#677989;}
	.st2{fill:#54C0EB;}
	.st3{fill:#FFD15C;}
	.st4{fill:#FFFFFF;}
</style>
<circle class="st0" cx="249.5" cy="252.5" r="236.5"/>
<path class="st1" d="M380.7,148.88C354.51,271.33,77.57,242.48,101.3,395h124c21.64-96.42,169.48-116.78,169.48-226.31
	c0-6.29-0.56-12.91-1.59-19.81L380.7,148.88L380.7,148.88z"/>
<path class="st2" d="M168.96,160.37c-38.16,0-69.1,30.94-69.1,69.09c0,38.16,69.1,131.97,69.1,131.97s69.1-93.8,69.1-131.96
	C238.06,191.31,207.12,160.37,168.96,160.37 M168.96,258.02c-15.76,0-28.54-12.79-28.54-28.55c0-15.75,12.79-28.54,28.54-28.54
	c15.76,0,28.54,12.79,28.54,28.54C197.5,245.23,184.72,258.02,168.96,258.02"/>
<path class="st3" d="M363.86,91.73c-22.09,0-40.01,17.92-40.01,40.01c0,22.1,40.01,76.42,40.01,76.42s40.01-54.31,40.01-76.42
	C403.87,109.64,385.97,91.73,363.86,91.73 M363.86,153.31c-11.91,0-21.57-9.65-21.57-21.57c0-11.91,9.66-21.57,21.57-21.57
	c11.92,0,21.57,9.66,21.57,21.57C385.44,143.66,375.78,153.31,363.86,153.31"/>
<circle class="st4" cx="169" cy="229" r="28"/>
<circle class="st4" cx="364" cy="132" r="22"/>
</svg>
