<?xml version="1.0" encoding="utf-8"?>
<!-- Generator: Adobe Illustrator 23.1.0, SVG Export Plug-In . SVG Version: 6.00 Build 0)  -->
<svg version="1.1" id="Capa_1" xmlns="http://www.w3.org/2000/svg" xmlns:xlink="http://www.w3.org/1999/xlink" x="0px" y="0px"
	 viewBox="0 0 511.8 511.8" style="enable-background:new 0 0 511.8 511.8;" xml:space="preserve">
<style type="text/css">
	.st0{fill:#CDD6E0;}
	.st1{fill:#54C0EB;}
	.st2{fill:#F4718E;}
</style>
<path class="st0" d="M472.8,96.8C428.7,303-37.5,254.4,2.4,511.2h208.7c36.4-162.3,285.3-196.6,285.3-381c0-10.6-0.9-21.7-2.7-33.4
	L472.8,96.8L472.8,96.8z"/>
<path class="st1" d="M120.6,116.2C54,116.2,0,170.2,0,236.7C0,303.3,120.6,467,120.6,467s120.6-163.7,120.6-230.3
	C241.1,170.2,187.2,116.2,120.6,116.2 M120.6,286.6c-27.5,0-49.8-22.3-49.8-49.8c0-27.5,22.3-49.8,49.8-49.8
	c27.5,0,49.8,22.3,49.8,49.8C170.4,264.3,148.1,286.6,120.6,286.6"/>
<path class="st2" d="M432.1,0.6c-44,0-79.7,35.7-79.7,79.7c0,44,79.7,152.2,79.7,152.2s79.7-108.2,79.7-152.2
	C511.8,36.3,476.1,0.6,432.1,0.6 M432.1,123.3c-23.7,0-43-19.2-43-43c0-23.7,19.2-43,43-43c23.7,0,43,19.2,43,43
	C475.1,104.1,455.8,123.3,432.1,123.3"/>
</svg>
