<svg xmlns="http://www.w3.org/2000/svg" width="73" height="74" viewBox="0 0 73 74">
    <path fill="#FFF" fill-rule="nonzero" d="M33.915 29.266v8.93H19.798v-8.93h14.117zm-11.59 6.612h9.063v-4.294h-9.063v4.294zm12.388 6.593v2.318H19v-2.318h6.498v-3.458h2.66v3.458h6.555zm17.127 1.045v1.9H37.818v-4.712H48.97v-.931H37.818v-1.881h13.66v4.693H40.346v.931H51.84zm-7.847-8.417v1.9h-6.707v-7.733h6.289v1.881H39.66v1.045h3.648v1.843H39.66v1.064h4.332zm3.78-6.023v8.189h-2.317v-3.097h-1.653v-2.166h1.653v-2.926h2.318zm1.293 8.189V29h2.413v8.265h-2.413z"/>
</svg>
