<?xml version="1.0" encoding="iso-8859-1"?>
<!-- Generator: Adobe Illustrator 21.0.0, SVG Export Plug-In . SVG Version: 6.00 Build 0)  -->
<svg xmlns="http://www.w3.org/2000/svg" xmlns:xlink="http://www.w3.org/1999/xlink" version="1.1" id="Capa_1" x="0px" y="0px" viewBox="0 0 512.001 512.001" style="enable-background:new 0 0 512.001 512.001;" xml:space="preserve" width="512" height="512">
<g>
	<path style="fill:#FEC03F;" d="M83.178,510.821c-7.635-3.216-11.217-12.013-8-19.647l93.353-221.584   c3.216-7.634,12.012-11.216,19.646-8s11.217,12.013,8,19.647l-93.353,221.584C99.607,510.456,90.81,514.037,83.178,510.821z"/>
	<path style="fill:#ED961F;" d="M409.177,502.821l-93.353-221.584c-3.217-7.634,0.365-16.431,8-19.647s16.431,0.365,19.646,8   l93.353,221.584c3.217,7.634-0.365,16.431-8,19.647C421.192,514.037,412.394,510.457,409.177,502.821z"/>
	<path style="fill:#FEC03F;" d="M382.556,415.998H129.445c-8.284,0-15-6.716-15-15s6.716-15,15-15h253.111c8.284,0,15,6.716,15,15   S390.841,415.998,382.556,415.998z"/>
	<path style="fill:#ED961F;" d="M382.556,385.998H256.501v30h126.056c8.284,0,15-6.716,15-15S390.841,385.998,382.556,385.998z"/>
	<path style="fill:#565656;" d="M419.126,130.998H92.876c-8.284,0-15,6.716-15,15c0,43.075,18.756,83.469,52.813,113.742   c69.428,61.715,181.18,61.729,250.625,0c34.057-30.273,52.813-70.667,52.813-113.742   C434.126,137.713,427.41,130.998,419.126,130.998z"/>
	<path style="fill:#444444;" d="M419.126,130.998H256.501v174.995c99.214-0.244,177.625-72.61,177.625-159.995   C434.126,137.713,427.41,130.998,419.126,130.998z"/>
	<path style="fill:#F1543F;" d="M243.656,119.916c-7.492-3.535-10.7-12.474-7.166-19.966c5.041-10.685,9.511-13.337,9.511-25.978   c0-21.152-17.871-23.046-14.621-60.277c0.721-8.253,8.005-14.352,16.248-13.639c8.253,0.721,14.359,7.995,13.639,16.248   c-1.146,13.13,1.389,17.524,5.227,24.175c4.236,7.341,9.508,16.477,9.508,33.492c0,21.539-8.486,30.522-12.378,38.778   C260.089,120.24,251.152,123.452,243.656,119.916z"/>
	<path style="fill:#EA2A1F;" d="M266.493,40.48c-3.838-6.651-6.373-11.045-5.227-24.175c0.419-4.803-1.483-9.263-4.766-12.305   v115.886c5.711-2.715,6.64-6.612,9.992-12.421c4.236-7.341,9.508-16.478,9.508-33.493S270.729,47.821,266.493,40.48z"/>
	<path style="fill:#F1543F;" d="M165.656,119.916c-7.492-3.535-10.7-12.474-7.166-19.966c5.041-10.685,9.511-13.337,9.511-25.978   c0-21.152-17.871-23.046-14.621-60.277c0.721-8.253,8.018-14.352,16.248-13.639c8.253,0.721,14.359,7.995,13.639,16.248   c-1.146,13.13,1.389,17.524,5.227,24.175c4.236,7.341,9.508,16.477,9.508,33.492c0,21.539-8.486,30.522-12.378,38.778   C182.089,120.24,173.152,123.452,165.656,119.916z"/>
	<path style="fill:#FEC03F;" d="M256.001,511.998c-8.284,0-15-6.716-15-15v-206c0-8.284,6.716-15,15-15c8.284,0,15,6.716,15,15v206   C271.001,505.282,264.285,511.998,256.001,511.998z"/>
	<path style="fill:#ED961F;" d="M256.501,276.023v235.949c8.051-0.266,14.5-6.859,14.5-14.975v-206   C271.001,282.882,264.552,276.289,256.501,276.023z"/>
	<path style="fill:#EA2A1F;" d="M317.656,119.916c-7.492-3.535-10.7-12.474-7.166-19.966c5.041-10.685,9.511-13.337,9.511-25.978   c0-21.152-17.871-23.046-14.621-60.277c0.721-8.253,8.018-14.352,16.248-13.639c8.253,0.721,14.359,7.995,13.639,16.248   c-1.146,13.13,1.389,17.524,5.227,24.175c4.236,7.341,9.508,16.477,9.508,33.492c0,21.539-8.486,30.522-12.378,38.778   C334.089,120.24,325.152,123.452,317.656,119.916z"/>
</g>















</svg>
