<?xml version="1.0" encoding="utf-8"?>
<!-- Generator: Adobe Illustrator 16.0.0, SVG Export Plug-In . SVG Version: 6.00 Build 0)  -->
<!DOCTYPE svg PUBLIC "-//W3C//DTD SVG 1.1//EN" "http://www.w3.org/Graphics/SVG/1.1/DTD/svg11.dtd">
<svg version="1.1" id="Layer_1" xmlns="http://www.w3.org/2000/svg" xmlns:xlink="http://www.w3.org/1999/xlink" x="0px" y="0px"
	 width="512px" height="512px" viewBox="0 0 512 512" enable-background="new 0 0 512 512" xml:space="preserve">
<g>
	<path fill="#ECCE93" d="M438.017,48v144H29.201V48c0-26.398,19.712-48,43.802-48h321.212C418.305,0,438.017,21.602,438.017,48z"/>
	<path fill="#E5BD76" d="M335.813,64h-43.802c-23.961,0-45.085,12.895-58.402,32.496C220.292,76.895,199.168,64,175.207,64h-43.801
		c-40.255,0-73.003,35.887-73.003,80v80h350.413v-80C408.815,99.887,376.067,64,335.813,64z"/>
	<path fill="#E4EDFB" d="M219.008,192H87.603v-48c0-26.465,19.652-48,43.802-48h43.801c24.15,0,43.802,21.535,43.802,48V192z"/>
	<path fill="#E5BD76" d="M438.017,129.602V192H29.201v-62.398C33.875,128.48,38.836,128,43.802,128h379.614
		C428.382,128,433.343,128.48,438.017,129.602z"/>
	<path fill="#E4EDFB" d="M379.614,192H248.209v-48c0-26.465,19.651-48,43.801-48h43.802c24.15,0,43.802,21.535,43.802,48V192z"/>
	<path fill="#D7E1F2" d="M216.321,128H90.291c-1.636,5.023-2.688,10.367-2.688,16v48h131.405v-48
		C219.008,138.367,217.957,133.023,216.321,128z"/>
	<path fill="#D7E1F2" d="M376.927,128H250.912c-1.651,5.023-2.702,10.367-2.702,16v48h131.405v-48
		C379.614,138.367,378.563,133.023,376.927,128z"/>
	<path fill="#FFFFFF" d="M131.405,192h29.201v32h-29.201V192z"/>
	<path fill="#FFFFFF" d="M306.611,192h29.201v32h-29.201V192z"/>
	<path fill="#5BCAFF" d="M423.416,160H43.802C19.652,160,0,181.535,0,208v96h467.218v-96C467.218,181.535,447.566,160,423.416,160z"
		/>
	<path fill="#28B9FF" d="M0,240h467.218v64H0V240z"/>
	<path fill="#ECCE93" d="M0,272v112h29.201v-32h408.815v32h29.201V272H0z"/>
	<g>
		<path fill="#FFFFFF" d="M189.807,32h29.201v32h-29.201V32z"/>
		<path fill="#FFFFFF" d="M248.209,32h29.201v32h-29.201V32z"/>
	</g>
</g>
</svg>
