<?xml version="1.0" encoding="utf-8"?>
<!-- Generator: Adobe Illustrator 16.0.0, SVG Export Plug-In . SVG Version: 6.00 Build 0)  -->
<!DOCTYPE svg PUBLIC "-//W3C//DTD SVG 1.1//EN" "http://www.w3.org/Graphics/SVG/1.1/DTD/svg11.dtd">
<svg version="1.1" id="Layer_1" xmlns="http://www.w3.org/2000/svg" xmlns:xlink="http://www.w3.org/1999/xlink" x="0px" y="0px"
	 width="100px" height="100px" viewBox="0 0 100 100" enable-background="new 0 0 100 100" xml:space="preserve">
<g>
	<path fill="#FFFFFF" d="M20.986,40.186c-1.107,0-2.054,0.402-2.841,1.201c-0.787,0.801-1.181,1.771-1.181,2.912
		c0,1.139,0.394,2.108,1.181,2.909c0.787,0.8,1.734,1.202,2.841,1.202c1.123,0,2.083-0.402,2.885-1.202
		c0.803-0.801,1.201-1.771,1.201-2.909c0-1.14-0.397-2.111-1.201-2.912C23.07,40.587,22.109,40.186,20.986,40.186z"/>
	<path fill="#FFFFFF" d="M55.312,40.15c-1.105,0-2.054,0.398-2.838,1.202c-0.787,0.8-1.183,1.771-1.183,2.909
		c0,1.141,0.396,2.108,1.183,2.912c0.784,0.8,1.732,1.202,2.838,1.202c1.124,0,2.086-0.401,2.887-1.202
		c0.803-0.803,1.202-1.771,1.202-2.912c0-1.138-0.399-2.108-1.202-2.909C57.397,40.549,56.436,40.15,55.312,40.15z"/>
	<path fill="#FFFFFF" d="M78.204,40.186c-1.105,0-2.053,0.402-2.841,1.201c-0.785,0.801-1.18,1.771-1.18,2.912
		c0,1.139,0.395,2.108,1.18,2.909c0.788,0.8,1.735,1.202,2.841,1.202c1.122,0,2.086-0.402,2.886-1.202
		c0.801-0.801,1.201-1.771,1.201-2.909c0-1.14-0.4-2.111-1.201-2.912C80.29,40.587,79.326,40.186,78.204,40.186z"/>
	<path fill="#FFFFFF" d="M88.382,10H10.814C4.866,10,0,14.871,0,20.815v43.869c0,5.946,4.866,10.814,10.814,10.814h30.458
		c0,0,5.882,16.058,8.025,16.058c2.146,0,8.508-16.058,8.508-16.058h30.576c5.949,0,10.815-4.868,10.815-10.814V20.815
		C99.197,14.871,94.331,10,88.382,10z M28.833,50.499c-1.534,1.732-3.893,2.46-6.46,2.46c-2.32,0-4.015-0.696-5.269-1.65H17.03
		v1.233h-5.824V27.144h5.824v9.709h0.074c1.576-1.347,3.667-1.803,6.136-1.883c2.109-0.071,4.304,1.25,5.622,2.771
		c1.311,1.517,2.268,3.896,2.268,6.527C31.13,47.127,30.37,48.77,28.833,50.499z M41.332,52.731h-5.939c0,0,0-13.343,0-15.718
		c0-3.628-2.867-4.105-2.867-4.105V26.62c0,0,8.324,0.508,8.806,10.593C41.332,40.121,41.332,52.731,41.332,52.731z M64.636,47.915
		c-0.502,1.138-1.226,2.153-2.183,3.047c-0.945,0.88-2.027,1.558-3.253,2.027c-1.225,0.469-2.519,0.707-3.882,0.707
		c-1.337,0-2.613-0.238-3.821-0.707c-1.215-0.469-2.298-1.146-3.256-2.027c-0.984-0.929-1.726-1.955-2.23-3.082
		c-0.504-1.125-0.755-2.321-0.755-3.581c0-1.262,0.251-2.458,0.755-3.583c0.505-1.124,1.247-2.152,2.23-3.081
		c0.958-0.884,2.041-1.559,3.256-2.031c1.208-0.47,2.484-0.705,3.821-0.705c1.363,0,2.657,0.235,3.882,0.705
		c1.226,0.472,2.308,1.146,3.253,2.031c0.957,0.893,1.681,1.909,2.183,3.046c0.497,1.139,0.745,2.343,0.745,3.619
		C65.381,45.573,65.133,46.778,64.636,47.915z M87.99,50.438c0,4.461-0.846,7.179-2.835,9.07c-2.365,2.245-5.736,2.402-8.574,1.998
		v-4.612c2.369,0.237,5.627-1.321,5.621-4.391V51.32h-0.07c-1.33,1.833-3.27,2.501-5.847,2.501c-2.391,0-4.464-0.884-5.867-2.528
		c-1.405-1.643-2.106-3.847-2.106-6.612c0-3.097,0.781-5.557,2.346-7.378c1.563-1.823,3.79-2.671,6.342-2.671
		c2.284,0,3.722,0.552,5.133,1.835h0.07v-1.392h5.788V50.438z"/>
</g>
</svg>
