<?xml version="1.0" encoding="utf-8"?>
<!-- Generator: Adobe Illustrator 16.0.0, SVG Export Plug-In . SVG Version: 6.00 Build 0)  -->
<!DOCTYPE svg PUBLIC "-//W3C//DTD SVG 1.1//EN" "http://www.w3.org/Graphics/SVG/1.1/DTD/svg11.dtd">
<svg version="1.1" id="Layer_1" xmlns="http://www.w3.org/2000/svg" xmlns:xlink="http://www.w3.org/1999/xlink" x="0px" y="0px"
	 width="300px" height="300px" viewBox="0 0 300 300" enable-background="new 0 0 300 300" xml:space="preserve">
<g>
	<path fill="#FFDB2D" d="M297.276,9.657l-1.355-4.551l-4.576-1.348c-0.849-0.25-21.186-6.063-53.146,0.147
		c-18.418,3.579-37.093,10.43-55.505,20.362c-22.778,12.287-45.232,29.362-66.741,50.75C69.554,121.159,41.142,167.038,25.478,197.4
		C8.392,230.517,2.379,252.575,2.131,253.498L0,261.443l28.617,9.483l9.538,28.46l7.99-2.119
		c0.928-0.247,23.108-6.228,56.411-23.219c30.531-15.577,76.664-43.831,123.063-89.971c21.509-21.39,38.68-43.719,51.034-66.37
		c9.988-18.311,16.877-36.883,20.475-55.199C303.372,30.726,297.529,10.502,297.276,9.657z"/>
	<path fill="#FFB62D" d="M295.921,5.106l1.355,4.551c0.253,0.845,6.096,21.069-0.149,52.852
		c-3.598,18.316-10.486,36.888-20.475,55.199c-12.354,22.651-29.525,44.98-51.034,66.37c-46.397,46.14-92.531,74.394-123.063,89.971
		c-33.302,16.991-55.483,22.972-56.411,23.219l-7.99,2.119l-9.538-28.46L295.921,5.106z"/>
	<path fill="#45A8FF" d="M73.533,122.835c-4.641,5.944-8.984,11.78-13.051,17.483h99.474v98.923
		c5.732-4.045,11.604-8.364,17.579-12.979V122.835H73.533L73.533,122.835z"/>
	<path fill="#299CFF" d="M159.955,140.318v98.923c5.732-4.045,11.604-8.364,17.58-12.979V122.835L159.955,140.318z"/>
	<path fill="#45A8FF" d="M42.175,167.894c-3.78,6.139-7.191,11.99-10.248,17.48h82.72v82.26c5.522-3.037,11.406-6.431,17.58-10.19
		v-89.55H42.175z"/>
	<path fill="#299CFF" d="M114.647,185.374v82.26c5.522-3.037,11.406-6.431,17.58-10.19v-89.55L114.647,185.374z"/>
	<path fill="#45A8FF" d="M251.235,61.906l47.215-46.953c-0.572-3.225-1.102-5.055-1.174-5.297l-1.355-4.551l-4.575-1.348
		c-0.242-0.072-2.085-0.597-5.326-1.167l-47.215,46.954L251.235,61.906z"/>
	<path fill="#299CFF" d="M251.235,61.906l47.215-46.953c-0.572-3.225-1.102-5.055-1.174-5.297l-1.355-4.551l-50.874,50.593
		L251.235,61.906z"/>
</g>
</svg>
