<?xml version="1.0" encoding="utf-8"?>
<!-- Generator: Adobe Illustrator 16.0.0, SVG Export Plug-In . SVG Version: 6.00 Build 0)  -->
<!DOCTYPE svg PUBLIC "-//W3C//DTD SVG 1.1//EN" "http://www.w3.org/Graphics/SVG/1.1/DTD/svg11.dtd">
<svg version="1.1" id="Layer_1" xmlns="http://www.w3.org/2000/svg" xmlns:xlink="http://www.w3.org/1999/xlink" x="0px" y="0px"
	 width="100px" height="100px" viewBox="0 0 100 100" enable-background="new 0 0 100 100" xml:space="preserve">
<g>
	<path fill="#FFFFFF" d="M99.766,50.283C97.182,18.992,91.524,0.571,50.002,0.571S2.821,18.992,0.233,50.283
		c-3.335,40.39,11.352,49.146,49.769,49.146C88.414,99.429,103.104,90.673,99.766,50.283z M44.629,17.099l16.303-0.008
		c0.229,0,0.449,0.09,0.613,0.255c0.16,0.163,0.248,0.383,0.244,0.614c-0.23,13.632-13.663,15.81-13.797,15.827
		c-0.042,0.008-0.086,0.011-0.13,0.011H30.639c-0.236,0-0.466-0.1-0.627-0.277c-0.165-0.175-0.241-0.409-0.225-0.65
		C30.942,19.207,44.49,17.118,44.629,17.099z M74.363,60.867h-6.795c-1.31,7.244-6.371,22.041-25.822,22.041
		c-25.751,0-26.28-25.949-26.28-25.949v-15.58c0-0.475,0.378-0.856,0.851-0.856h42.344h8.519h7.184
		c5.608,0,10.171,4.562,10.171,10.171C84.534,56.305,79.972,60.867,74.363,60.867z"/>
	<path fill="#FFFFFF" d="M74.126,45.695c-2.73,0-4.939,2.211-4.939,4.942c0,2.728,2.209,4.935,4.939,4.935
		c2.725,0,4.936-2.207,4.936-4.935C79.062,47.907,76.851,45.695,74.126,45.695z"/>
</g>
</svg>
