<svg height="511pt" viewBox="0 -105 511.9995 511" width="511pt" xmlns="http://www.w3.org/2000/svg"><path d="m273.304688 289.882812-119.972657-258.941406c-.003906-.003906-.003906-.003906-.003906-.007812l-.023437-.050782c-.027344-.0625-.066407-.125-.097657-.1875-.058593-.117187-.117187-.238281-.179687-.351562-.054688-.09375-.113282-.183594-.171875-.277344-.050781-.085937-.101563-.171875-.160157-.253906-.070312-.105469-.148437-.207031-.226562-.308594-.046875-.0625-.09375-.128906-.144531-.1875-.085938-.109375-.175781-.207031-.265625-.308594-.050782-.054687-.097656-.109374-.148438-.160156-.09375-.097656-.191406-.191406-.292968-.285156-.050782-.050781-.105469-.101562-.160157-.152344-.097656-.085937-.203125-.167968-.304687-.25-.0625-.046875-.121094-.097656-.183594-.144531-.101562-.078125-.210938-.148437-.316406-.21875-.066406-.046875-.132813-.09375-.203125-.136719-.109375-.066406-.222657-.128906-.335938-.191406-.070312-.039062-.140625-.078125-.210937-.113281-.125-.066407-.25-.121094-.375-.175781-.066406-.027344-.128906-.058594-.191406-.085938-.152344-.0625-.304688-.113281-.460938-.167969-.042969-.015625-.085938-.03125-.128906-.046875-.191406-.058594-.386719-.199218-.582032-.246094-.011718 0-.019531-.097656-.03125-.097656h-.003906c-.40625 0-.824218-.054687-1.246094-.078125-.011718 0-.023437.042969-.035156.042969-.148437-.007812-.300781.019531-.449218.019531-.066407.003907-.132813.011719-.203126.011719-.085937.003906-.175781.023438-.265624.027344-.128907.011718-.253907.019531-.378907.039062-.0625.007813-.121093.019532-.183593.03125-.152344.023438-.304688.046875-.453126.078125-.007812.003907-.019531.003907-.027343.007813-.058594.011718-.117188.03125-.175781.046875-.136719.03125-.273438.066406-.410157.109375-.09375.027344-.183593.0625-.273437.09375-.105469.035156-.210938.070312-.3125.113281-.109375.042969-.210938.089844-.3125.136719-.085938.039062-.171875.078125-.257813.117187-.105469.054688-.210937.113281-.316406.171875-.078125.046875-.15625.085938-.230469.132813-.101562.0625-.199218.128906-.292968.195312-.078126.050781-.15625.101563-.230469.15625-.089844.066407-.175781.136719-.261719.207031-.078125.058594-.15625.121094-.234375.1875-.078125.066407-.152344.140626-.226563.210938-.078124.074219-.15625.148438-.230468.226562-.066406.070313-.132813.140626-.199219.214844-.074219.082032-.148437.167969-.21875.253906-.0625.078126-.125.15625-.183594.238282-.066406.085937-.132812.171875-.195312.261718-.0625.09375-.121094.1875-.179688.28125-.050781.082032-.105469.164063-.152343.25-.066407.113282-.125.230469-.179688.34375-.035156.066407-.070312.125-.101562.1875l-121.5 259c-1.089844 2.324219-.914063 5.042969.460937 7.210938 1.375 2.164062 3.765625 3.476562 6.332031 3.476562h241.5c2.558594 0 4.941406-1.304687 6.320313-3.464843 1.375-2.15625 1.554687-4.867188.480469-7.191407zm0 0" fill="#702d22"/><path d="m366.5 42.5c-4.144531 0-7.5-3.355469-7.5-7.5v-27c0-4.144531 3.355469-7.5 7.5-7.5s7.5 3.355469 7.5 7.5v27c0 4.140625-3.359375 7.5-7.5 7.5zm0 0" fill="#594235"/><path d="m146.5 42.5c-4.140625 0-7.5-3.355469-7.5-7.5v-27c0-4.144531 3.359375-7.5 7.5-7.5s7.5 3.355469 7.5 7.5v27c0 4.140625-3.359375 7.5-7.5 7.5zm0 0" fill="#594235"/><path d="m148.132812 26.679688c-3.429687-.765626-6.929687.953124-8.421874 4.132812l-121.5 259c-1.089844 2.324219-.917969 5.042969.457031 7.210938 1.378906 2.164062 3.765625 3.476562 6.332031 3.476562h121.5c4.140625 0 7.5-3.355469 7.5-7.5v-259c0-3.515625-2.4375-6.554688-5.867188-7.320312zm0 0" fill="#f26944"/><path d="m260.519531 297.53125c-26.488281-34.242188-48.25-35.960938-74.769531-27.621094-2.082031.648438-4.339844.371094-6.191406-.78125-1.847656-1.140625-3.117188-3.027344-3.457032-5.179687l-36.933593-228.347657c.121093.527344.292969 1.046876.523437 1.546876l97.085938 142.453124 22.921875 116.546876c.230469.492187.5.960937.820312 1.382812zm0 0" fill="#d36e00"/><path d="m493.300781 289.851562-120-259c-1.222656-2.652343-3.882812-4.351562-6.800781-4.351562h-220c-.160156 0-.320312.007812-.480469.019531-.109375 0-.210937.011719-.320312.03125-.28125.019531-.570313.070313-.847657.140625-.152343.027344-.292968.066406-.441406.109375-.039062.007813-.070312.019531-.109375.027344-.222656.070313-.441406.152344-.660156.242187-.160156.058594-.332031.140626-.480469.21875-.171875.082032-.339844.171876-.492187.269532-.488281.28125-.9375.621094-1.339844 1.011718-.078125.078126-.167969.160157-.238281.238282-.28125.292968-.53125.601562-.761719.929687-.046875.070313-.097656.152344-.148437.222657-.019532.027343-.039063.058593-.050782.089843-.230468.367188-.429687.757813-.578125 1.160157-.0625.109374-.101562.21875-.132812.328124-.148438.410157-.25.832032-.316407 1.261719-.023437.128907-.042968.25-.050781.378907-.019531.101562-.019531.191406-.03125.289062-.03125.390625-.019531.800781.011719 1.199219.019531.183593.039062.351562.070312.53125l.066407.402343c.121093.527344.292969 1.046876.523437 1.546876l120.007813 259c.230469.492187.488281.972656.820312 1.382812 1.730469 2.113281 3.101563 2.824219 5.460938 2.949219.167969.007812.339843.019531.519531.019531h220c2.558594 0 4.941406-1.308594 6.320312-3.460938 1.378907-2.160156 1.558594-4.871093.480469-7.1875zm0 0" fill="#dd9300"/><path d="m492.8125 297.039062c-1.378906 2.140626-3.757812 3.460938-6.3125 3.460938h-20.914062c2.554687 0 4.933593-1.320312 6.316406-3.460938 1.378906-2.164062 1.5625-4.875.480468-7.191406l-120.003906-258.996094c-1.214844-2.660156-3.871094-4.359374-6.796875-4.359374h20.910157c2.925781 0 5.585937 1.699218 6.800781 4.359374l120.003906 258.996094c1.082031 2.316406.898437 5.027344-.484375 7.191406zm0 0" fill="#d68003"/><path d="m419.8125 199.863281-64-139c-1.226562-2.660156-3.886719-4.363281-6.8125-4.363281h-158c-2.5625 0-4.953125 1.3125-6.328125 3.472656-1.378906 2.164063-1.554687 4.882813-.464844 7.203125l65 139c1.230469 2.640625 3.878907 4.324219 6.792969 4.324219h157c2.558594 0 4.9375-1.300781 6.316406-3.457031 1.378906-2.152344 1.566406-4.859375.496094-7.179688zm0 0" fill="#ffb127"/><path d="m349.707031 120.144531-15-29.75c-1.269531-2.539062-3.867187-3.894531-6.707031-3.894531h-89.5c-2.582031 0-4.980469 1.078125-6.355469 3.265625-1.371093 2.1875-1.519531 4.800781-.398437 7.125l14.5 30.183594c1.253906 2.59375 3.875 4.425781 6.753906 4.425781h90c2.597656 0 5.011719-1.597656 6.378906-3.808594 1.367188-2.210937 1.492188-5.222656.328125-7.546875zm0 0" fill="#efd6a3"/><g fill="#594235"><path d="m25 300.5c-1.917969 0-3.839844-.730469-5.304688-2.195312l-17.5-17.5c-2.925781-2.929688-2.925781-7.679688 0-10.609376 2.929688-2.925781 7.679688-2.925781 10.609376 0l17.5 17.5c2.925781 2.929688 2.925781 7.679688 0 10.609376-1.464844 1.460937-3.386719 2.195312-5.304688 2.195312zm0 0"/><path d="m487 300.5c-1.917969 0-3.839844-.730469-5.304688-2.195312-2.929687-2.929688-2.929687-7.679688 0-10.609376l17.5-17.5c2.929688-2.925781 7.679688-2.925781 10.609376 0 2.925781 2.929688 2.925781 7.679688 0 10.609376l-17.5 17.5c-1.464844 1.460937-3.386719 2.195312-5.304688 2.195312zm0 0"/><path d="m266.167969 300.5c-1.921875 0-3.839844-.730469-5.304688-2.195312-2.929687-2.929688-2.929687-7.679688 0-10.609376l17.5-17.5c2.929688-2.925781 7.675781-2.925781 10.605469 0 2.929688 2.929688 2.929688 7.679688 0 10.609376l-17.5 17.5c-1.464844 1.460937-3.382812 2.195312-5.300781 2.195312zm0 0"/></g></svg>