<?xml version="1.0" encoding="utf-8"?>
<!-- Generator: Adobe Illustrator 16.0.0, SVG Export Plug-In . SVG Version: 6.00 Build 0)  -->
<!DOCTYPE svg PUBLIC "-//W3C//DTD SVG 1.1//EN" "http://www.w3.org/Graphics/SVG/1.1/DTD/svg11.dtd">
<svg version="1.1" id="Layer_1" focusable="false" xmlns="http://www.w3.org/2000/svg" xmlns:xlink="http://www.w3.org/1999/xlink"
	 x="0px" y="0px" width="400px" height="400px" viewBox="0 0 400 400" enable-background="new 0 0 400 400" xml:space="preserve">
<path fill="#BFBFBF" d="M365.625,125H34.375c-5.177,0-9.375-4.198-9.375-9.375V87.5C25,66.789,41.789,50,62.5,50H100V9.375
	C100,4.198,104.198,0,109.375,0h31.25C145.802,0,150,4.198,150,9.375V50h100V9.375C250,4.198,254.197,0,259.375,0h31.25
	C295.803,0,300,4.198,300,9.375V50h37.5c20.711,0,37.5,16.789,37.5,37.5v28.125C375,120.802,370.803,125,365.625,125z M34.375,150
	h331.25c5.178,0,9.375,4.198,9.375,9.375V362.5c0,20.711-16.789,37.5-37.5,37.5h-275C41.789,400,25,383.211,25,362.5V159.375
	C25,154.198,29.198,150,34.375,150z M294.763,224.959l-22.007-22.187c-3.646-3.676-9.582-3.7-13.258-0.053l-82.842,82.175
	l-35.922-36.213c-3.646-3.676-9.583-3.699-13.259-0.053l-22.185,22.008c-3.676,3.646-3.7,9.582-0.053,13.258l64.532,65.054
	c3.646,3.676,9.582,3.7,13.258,0.054l111.682-110.785C298.385,234.57,298.409,228.635,294.763,224.959L294.763,224.959z"/>
</svg>
