<?xml version="1.0" encoding="utf-8"?>
<!-- Generator: Adobe Illustrator 16.0.0, SVG Export Plug-In . SVG Version: 6.00 Build 0)  -->
<!DOCTYPE svg PUBLIC "-//W3C//DTD SVG 1.1//EN" "http://www.w3.org/Graphics/SVG/1.1/DTD/svg11.dtd">
<svg version="1.1" id="Capa_1" xmlns="http://www.w3.org/2000/svg" xmlns:xlink="http://www.w3.org/1999/xlink" x="0px" y="0px"
	 width="400px" height="400px" viewBox="0 0 400 400" enable-background="new 0 0 400 400" xml:space="preserve">
<path fill="#BFBFBF" d="M126.125,226.25h-12.313c-27.203,0-49.25,22.086-49.25,49.343v49.064c0,27.25,22.047,49.343,49.25,49.343
	h12.313c13.598,0,24.625-11.051,24.625-24.671v-98.408C150.75,237.293,139.723,226.25,126.125,226.25z M286.188,226.25h-12.313
	c-13.598,0-24.625,11.043-24.625,24.671v98.408c0,13.62,11.027,24.671,24.625,24.671h12.313c27.203,0,49.25-22.093,49.25-49.343
	v-49.064C335.438,248.343,313.391,226.25,286.188,226.25z M200,29.25c-110.112,0-193.483,91.674-197,197v86.188
	c0,6.803,5.51,12.313,12.313,12.313h12.313c6.803,0,12.313-5.51,12.313-12.313V226.25c0-88.242,71.82-159.909,160.063-159.924
	c88.242,0.015,160.063,71.682,160.063,159.924v86.188c0,6.803,5.51,12.313,12.313,12.313h12.313c6.803,0,12.313-5.51,12.313-12.313
	V226.25C393.483,120.924,310.112,29.25,200,29.25z"/>
</svg>
