<svg height="512pt" viewBox="0 -64 512 512" width="512pt" xmlns="http://www.w3.org/2000/svg"><path d="m480 48v144h-448v-144c0-26.398438 21.601562-48 48-48h352c26.398438 0 48 21.601562 48 48zm0 0" fill="#ecce93"/><path d="m368 64h-48c-26.257812 0-49.40625 12.894531-64 32.496094-14.59375-19.601563-37.742188-32.496094-64-32.496094h-48c-44.113281 0-80 35.886719-80 80v80h384v-80c0-44.113281-35.886719-80-80-80zm0 0" fill="#e5bd76"/><path d="m240 192h-144v-48c0-26.464844 21.535156-48 48-48h48c26.464844 0 48 21.535156 48 48zm0 0" fill="#e4edfb"/><path d="m480 129.601562v62.398438h-448v-62.398438c5.121094-1.121093 10.558594-1.601562 16-1.601562h416c5.441406 0 10.878906.480469 16 1.601562zm0 0" fill="#e5bd76"/><path d="m416 192h-144v-48c0-26.464844 21.535156-48 48-48h48c26.464844 0 48 21.535156 48 48zm0 0" fill="#e4edfb"/><path d="m237.054688 128h-138.109376c-1.792968 5.023438-2.945312 10.367188-2.945312 16v48h144v-48c0-5.632812-1.152344-10.976562-2.945312-16zm0 0" fill="#d7e1f2"/><path d="m413.054688 128h-138.09375c-1.808594 5.023438-2.960938 10.367188-2.960938 16v48h144v-48c0-5.632812-1.152344-10.976562-2.945312-16zm0 0" fill="#d7e1f2"/><path d="m144 192h32v32h-32zm0 0" fill="#fff"/><path d="m336 192h32v32h-32zm0 0" fill="#fff"/><path d="m464 160h-416c-26.464844 0-48 21.535156-48 48v96h512v-96c0-26.464844-21.535156-48-48-48zm0 0" fill="#ff668b"/><path d="m0 240h512v64h-512zm0 0" fill="#f7487a"/><path d="m0 272v112h32v-32h448v32h32v-112zm0 0" fill="#ecce93"/><g fill="#fff"><path d="m208 32h32v32h-32zm0 0"/><path d="m272 32h32v32h-32zm0 0"/></g></svg>