<?xml version="1.0" encoding="utf-8"?>
<!-- Generator: Adobe Illustrator 16.0.0, SVG Export Plug-In . SVG Version: 6.00 Build 0)  -->
<!DOCTYPE svg PUBLIC "-//W3C//DTD SVG 1.1//EN" "http://www.w3.org/Graphics/SVG/1.1/DTD/svg11.dtd">
<svg version="1.1" id="Capa_1" xmlns="http://www.w3.org/2000/svg" xmlns:xlink="http://www.w3.org/1999/xlink" x="0px" y="0px"
	 width="400px" height="400px" viewBox="0 0 400 400" enable-background="new 0 0 400 400" xml:space="preserve">
<circle fill="#BAC6D1" cx="200" cy="199.553" r="199.447"/>
<circle fill="#9EA6AD" cx="200" cy="199.553" r="143.767"/>
<path fill="#F7F7F7" d="M205.816,0.107c-4.154,0-6.647,4.155-6.647,7.479V83.21c0,4.155-3.324,7.479-7.479,7.479
	s-7.479-3.324-7.479-7.479V7.586c0-4.155-2.493-7.479-6.648-7.479c-4.155-0.832-8.311,3.324-8.311,7.479V83.21
	c0,4.155-3.324,7.479-7.479,7.479l0,0c-4.155,0-7.479-3.324-7.479-7.479V7.586c0-4.155-2.493-7.479-6.648-7.479
	c-4.155-0.832-8.311,3.324-8.311,7.479V83.21c0,4.155-3.324,7.479-7.479,7.479l0,0c-4.155,0-7.479-3.324-7.479-7.479V7.586
	c0-4.155-2.493-7.479-6.648-7.479c-4.155-0.832-8.311,3.324-8.311,7.479V91.52c0,14.127,5.817,26.592,14.958,36.565
	c14.958,14.958,23.269,35.734,21.606,56.509l-16.62,179.502c0,1.662,0,4.154,0,5.817c1.662,18.283,19.113,31.579,37.396,28.255
	c16.621-3.324,27.424-19.113,25.762-35.734l-15.79-178.67c-1.662-21.606,6.648-41.551,21.606-56.51
	c9.141-9.141,14.959-22.438,14.959-36.565V7.586C213.297,3.431,209.973,0.107,205.816,0.107z"/>
<path fill="#40596B" d="M177.562,187.088h-31.579l-15.79,177.009c0,1.661,0,4.155,0,5.817c1.662,18.283,19.113,31.578,37.396,28.255
	c16.621-3.324,27.424-19.113,25.762-35.734L177.562,187.088z"/>
<path fill="#F7F7F7" d="M277.285,0.107c0,0-35.734,14.127-50.693,121.33c-5.816,44.044,3.324,87.258,19.945,127.979
	c1.662,4.155,2.492,9.141,2.492,14.127l-9.972,107.202c0,1.662,0,3.324,0,4.986c1.661,14.127,14.128,24.932,29.086,23.27
	c13.296-1.662,22.438-15.79,21.606-29.086L277.285,0.107z"/>
<path fill="#FF7058" d="M249.031,262.711c0,0.832,0,0.832,0,1.662l-9.973,107.203c0,1.661,0,3.324,0,4.986
	c1.662,14.127,14.127,24.93,29.086,23.269c13.297-1.662,22.438-15.79,21.605-29.086l-3.324-107.202h-37.396v-0.832H249.031z"/>
</svg>
