<?xml version="1.0" encoding="utf-8"?>
<!-- Generator: Adobe Illustrator 16.0.4, SVG Export Plug-In . SVG Version: 6.00 Build 0)  -->
<!DOCTYPE svg PUBLIC "-//W3C//DTD SVG 1.1//EN" "http://www.w3.org/Graphics/SVG/1.1/DTD/svg11.dtd">
<svg version="1.1" id="Layer_1" xmlns="http://www.w3.org/2000/svg" xmlns:xlink="http://www.w3.org/1999/xlink" x="0px" y="0px"
	 width="141px" height="163px" viewBox="0 0 141 163" enable-background="new 0 0 141 163" xml:space="preserve">
<g id="Layer_2">
	<path opacity="0.1" enable-background="new    " d="M45.123,0l2.678,4.92l5.444,1.06l-3.79,4.101l0.688,5.576l-5.02-2.387
		l-5.021,2.387l0.688-5.576L37,5.979l5.445-1.06L45.123,0"/>
	<path fill="#FFDE00" d="M8.123,0l2.678,4.92l5.444,1.06l-3.79,4.101l0.688,5.576l-5.02-2.387l-5.021,2.387l0.688-5.576L0,5.979
		l5.445-1.06L8.123,0"/>
	<g>
		<path fill="#FFDE00" d="M26.123,0v13.27l-5.021,2.387l0.688-5.576L18,5.979l5.445-1.06L26.123,0"/>
		<path opacity="0.1" enable-background="new    " d="M26.123,0l2.678,4.92l5.445,1.06l-3.791,4.101l0.688,5.576l-5.021-2.387
			L26.123,0"/>
	</g>
	<path id="path7791_4_" fill="#CCCCCC" d="M92.5,17c-0.738-4.5-3.5-6-4.977-8.5C87.186,7.819,87,7.055,87,6.25
		C87,3.352,89.464,1,92.5,1C95.534,1,98,3.352,98,6.25c0,0.808-0.186,1.569-0.523,2.25C96.001,11,93.762,12.5,92.5,17L92.5,17z
		 M95.001,6c0-1.379-1.121-2.5-2.501-2.5S89.999,4.621,89.999,6c0,1.38,1.121,2.5,2.501,2.5S95.001,7.38,95.001,6z"/>
	<g>
		<g>
			<path fill="#FFFFFF" d="M108.5,1c4.143,0,7.5,3.358,7.5,7.5s-3.357,7.5-7.5,7.5s-7.5-3.357-7.5-7.5S104.357,1,108.5,1z"/>
			<path fill="#AAAAAA" d="M108.5,2c3.584,0,6.5,2.916,6.5,6.5s-2.916,6.5-6.5,6.5s-6.5-2.916-6.5-6.5S104.916,2,108.5,2 M108.5,1
				c-4.143,0-7.5,3.358-7.5,7.5s3.357,7.5,7.5,7.5s7.5-3.357,7.5-7.5S112.643,1,108.5,1L108.5,1z"/>
		</g>
		<g>
			<path fill="#AAAAAA" d="M106.695,4.975c0.461-0.267,1.027-0.4,1.699-0.4c0.883,0,1.615,0.189,2.199,0.569
				s0.877,0.942,0.877,1.688c0,0.457-0.128,0.842-0.381,1.154c-0.146,0.19-0.433,0.433-0.854,0.729l-0.416,0.29
				c-0.225,0.158-0.375,0.343-0.448,0.554c-0.047,0.134-0.072,0.341-0.076,0.622h-1.588c0.022-0.594,0.086-1.005,0.188-1.231
				c0.101-0.227,0.36-0.488,0.781-0.783l0.428-0.301c0.141-0.095,0.252-0.198,0.338-0.311c0.156-0.193,0.233-0.406,0.233-0.639
				c0-0.267-0.087-0.511-0.26-0.73c-0.174-0.22-0.49-0.329-0.95-0.329c-0.451,0-0.771,0.135-0.962,0.406
				c-0.188,0.271-0.282,0.552-0.282,0.844h-1.693C105.576,6.104,105.965,5.394,106.695,4.975z M107.668,10.902h1.752v1.523h-1.752
				V10.902z"/>
		</g>
	</g>
	<g>
		<path fill="#484848" d="M16,35c8.285,0,15,6.716,15,15s-6.715,15-15,15C7.717,65,1,58.284,1,50S7.717,35,16,35z"/>
		<g>
			<g>
				<path fill="#FFFFFF" d="M17.143,49.461h-2.285v2.154h2.285V49.461z M21.143,49.461h-2.285v2.154h2.285V49.461z M17.143,52.692
					h-2.285v2.153h2.285V52.692z M20,44.076V43h-1.143v1.077h-5.715V43H12v1.077H8V57h16V44.076H20z M22.857,55.923H9.143v-7.538
					h13.715L22.857,55.923L22.857,55.923z M22.857,47.308H9.143v-2.154H12v1.077h1.143v-1.077h5.715v1.077H20v-1.077h2.857V47.308z
					 M13.143,49.461h-2.285v2.154h2.285V49.461z M13.143,52.692h-2.285v2.153h2.285V52.692z M21.143,52.692h-2.285v2.153h2.285
					V52.692z"/>
			</g>
		</g>
	</g>
	<g>
		<g>
			<g>
				<polygon fill="#666666" points="89.873,39.995 89.029,40.829 98.254,50.005 89.034,59.176 89.873,60.005 100,50 				"/>
			</g>
		</g>
		<path fill="#666666" d="M70,49.005h28.254v2H70V49.005z"/>
	</g>
	<g>
		<g>
			<g>
				<polygon fill="#AAAAAA" points="128.872,37.995 127.65,39.204 138.51,50.004 127.656,60.801 128.872,62.005 141,50 				"/>
			</g>
		</g>
		<path fill="#AAAAAA" d="M107,49h32v2h-32V49z"/>
	</g>
</g>
</svg>
