<?xml version="1.0" encoding="utf-8"?>
<!-- Generator: Adobe Illustrator 16.0.0, SVG Export Plug-In . SVG Version: 6.00 Build 0)  -->
<!DOCTYPE svg PUBLIC "-//W3C//DTD SVG 1.1//EN" "http://www.w3.org/Graphics/SVG/1.1/DTD/svg11.dtd">
<svg version="1.1" id="Layer_1" xmlns="http://www.w3.org/2000/svg" xmlns:xlink="http://www.w3.org/1999/xlink" x="0px" y="0px"
	 width="100px" height="100px" viewBox="0 0 100 100" enable-background="new 0 0 100 100" xml:space="preserve">
<g>
	<path fill="#FFFFFF" d="M72.637,0H26.959C12.094,0,0,12.094,0,26.959v45.677c0,14.865,12.094,26.96,26.959,26.96h45.677
		c14.865,0,26.96-12.095,26.96-26.96V26.959C99.597,12.094,87.502,0,72.637,0L72.637,0z M49.798,77.03
		c-15.017,0-27.233-12.217-27.233-27.232c0-15.017,12.216-27.233,27.233-27.233c15.015,0,27.232,12.216,27.232,27.233
		C77.03,64.813,64.813,77.03,49.798,77.03L49.798,77.03z M77.683,28.987c-4.438,0-8.047-3.609-8.047-8.047
		c0-4.437,3.608-8.048,8.047-8.048c4.437,0,8.047,3.611,8.047,8.048C85.729,25.378,82.119,28.987,77.683,28.987L77.683,28.987z
		 M77.683,28.987"/>
	<path fill="#FFFFFF" d="M49.798,28.404c-11.796,0-21.395,9.597-21.395,21.395c0,11.795,9.598,21.394,21.395,21.394
		s21.394-9.599,21.394-21.394C71.192,38.001,61.595,28.404,49.798,28.404L49.798,28.404z M49.798,28.404"/>
	<path fill="#FFFFFF" d="M77.683,18.732c-1.218,0-2.209,0.992-2.209,2.208c0,1.218,0.991,2.208,2.209,2.208
		c1.217,0,2.208-0.99,2.208-2.208C79.891,19.723,78.899,18.732,77.683,18.732L77.683,18.732z M77.683,18.732"/>
</g>
</svg>
