<?xml version="1.0" encoding="iso-8859-1"?>
<!-- Generator: Adobe Illustrator 19.0.0, SVG Export Plug-In . SVG Version: 6.00 Build 0)  -->
<svg version="1.1" id="Capa_1" xmlns="http://www.w3.org/2000/svg" xmlns:xlink="http://www.w3.org/1999/xlink" x="0px" y="0px"
	 viewBox="0 0 512 512" style="enable-background:new 0 0 512 512;" xml:space="preserve">
<path style="fill:#FFCD00;" d="M291.101,355.791l-56.7,55.269l13.387,78.041c1.271,7.394-1.711,14.728-7.784,19.14
	c-6.073,4.412-13.967,4.983-20.611,1.491l-70.077-36.849L79.23,509.731c-2.882,1.511-6.013,2.261-9.125,2.261
	c-4.042,0-8.054-1.261-11.476-3.752c-6.073-4.412-9.055-11.746-7.784-19.14l13.377-78.041l-56.69-55.269
	c-5.373-5.233-7.274-12.917-4.953-20.05c2.311-7.134,8.364-12.236,15.788-13.317l78.361-11.386l35.038-71.007
	c3.322-6.724,10.045-10.906,17.549-10.906c7.504,0,14.227,4.182,17.539,10.906l35.048,71.007l78.351,11.386
	c7.424,1.081,13.477,6.183,15.798,13.317S296.474,350.558,291.101,355.791z"/>
<path style="fill:#FFA81F;" d="M291.101,355.791l-56.7,55.269l13.387,78.041c1.271,7.394-1.711,14.728-7.784,19.14
	c-6.073,4.412-13.967,4.983-20.611,1.491l-70.077-36.849V229.124c7.504,0,14.227,4.182,17.539,10.906l35.048,71.007l78.351,11.386
	c7.424,1.081,13.477,6.183,15.798,13.317C298.375,342.874,296.474,350.558,291.101,355.791z"/>
<path style="fill:#FFDE46;" d="M388.171,25.618l-37.199,37.199c-2.932,2.932-6.774,4.402-10.616,4.402
	c-3.842,0-7.684-1.471-10.616-4.402c-5.853-5.863-5.853-15.358,0-21.221L366.94,4.397c5.863-5.863,15.368-5.863,21.231,0
	C394.025,10.26,394.025,19.755,388.171,25.618z"/>
<g>
	<path style="fill:#FFEB95;" d="M309.19,104.6l-37.199,37.199c-2.932,2.932-6.774,4.402-10.616,4.402
		c-3.842,0-7.674-1.471-10.606-4.402h-0.01c-5.863-5.863-5.863-15.358,0-21.221l37.199-37.199c5.863-5.863,15.368-5.863,21.231,0
		C315.043,89.242,315.043,98.746,309.19,104.6z"/>
	<path style="fill:#FFEB95;" d="M229.209,184.581l-37.199,37.199c-2.932,2.932-6.774,4.392-10.616,4.392
		c-3.832,0-7.674-1.461-10.606-4.392c-5.863-5.863-5.863-15.368,0-21.231l37.199-37.189c5.853-5.863,15.358-5.863,21.221,0
		C235.072,169.213,235.072,178.718,229.209,184.581z"/>
	<path style="fill:#FFEB95;" d="M446.232,201.63l-37.199,37.199c-2.932,2.922-6.774,4.392-10.616,4.392
		c-3.842,0-7.684-1.471-10.616-4.392c-5.863-5.863-5.863-15.368,0-21.231l37.199-37.199c5.863-5.853,15.368-5.853,21.231,0
		C452.085,186.262,452.085,195.767,446.232,201.63z"/>
	<path style="fill:#FFEB95;" d="M366.25,281.602l-37.199,37.199c-2.932,2.932-6.774,4.392-10.616,4.392
		c-3.842,0-7.674-1.461-10.606-4.392c-5.863-5.863-5.863-15.358,0-21.221l37.199-37.199c5.853-5.863,15.358-5.863,21.221,0
		C372.113,266.244,372.113,275.739,366.25,281.602z"/>
	<path style="fill:#FFEB95;" d="M430.243,101.368l-37.199,37.199c-2.932,2.932-6.764,4.402-10.606,4.402
		c-3.842,0-7.684-1.471-10.616-4.402c-5.863-5.853-5.863-15.358,0-21.221l37.199-37.199c5.863-5.863,15.368-5.863,21.221,0
		C436.106,86.01,436.106,95.515,430.243,101.368z"/>
</g>
<path style="fill:#FFDE46;" d="M353.653,177.968l-37.199,37.199c-2.932,2.932-6.774,4.402-10.616,4.402
	c-3.842,0-7.684-1.471-10.616-4.402c-5.863-5.863-5.863-15.358,0-21.221l37.199-37.199c5.863-5.863,15.358-5.863,21.221,0h0.01
	C359.507,162.61,359.507,172.115,353.653,177.968z"/>
<path style="fill:#FFEB95;" d="M273.672,257.95l-37.199,37.199c-2.932,2.932-6.774,4.392-10.616,4.392
	c-3.842,0-7.684-1.461-10.606-4.392c-5.863-5.863-5.863-15.368,0-21.221l37.199-37.199c5.853-5.863,15.358-5.863,21.221,0
	C279.535,242.582,279.535,252.086,273.672,257.95z"/>
<path style="fill:#FFDE46;" d="M506.003,25.618l-37.199,37.199c-2.932,2.932-6.773,4.402-10.616,4.402s-7.684-1.471-10.616-4.402
	c-5.863-5.863-5.863-15.358,0-21.221l37.199-37.199c5.863-5.863,15.358-5.863,21.221,0h0.01
	C511.856,10.26,511.856,19.755,506.003,25.618z"/>
<g>
</g>
<g>
</g>
<g>
</g>
<g>
</g>
<g>
</g>
<g>
</g>
<g>
</g>
<g>
</g>
<g>
</g>
<g>
</g>
<g>
</g>
<g>
</g>
<g>
</g>
<g>
</g>
<g>
</g>
</svg>
