<svg enable-background="new 0 0 100 100" height="512" viewBox="0 0 100 100" width="512" xmlns="http://www.w3.org/2000/svg"><path d="m79.7094803 44.9299622 4.725029 9.5739555 10.5654907 1.5352554-7.645256 7.4522896 1.8047943 10.5227966-9.450058-4.968193-9.450058 4.968193 1.8048019-10.5227966-7.6452636-7.4522896 10.5654907-1.5352554z" fill="#feed32"/><path d="m20.2905197 44.9299622 4.725029 9.5739555 10.5654907 1.5352554-7.6452617 7.4522896 1.8048019 10.5227966-9.4500599-4.968193-9.4500608 4.968193 1.804801-10.5227966-7.6452599-7.4522896 10.5654888-1.5352554z" fill="#feed32"/><path d="m50.9190788 26.5945587 7.341568 14.8756409 16.4162483 2.3854179-11.87891 11.5790749 2.8042335 16.3499069-14.6831398-7.7193756-14.6831321 7.7193756 2.8042259-16.3499069-11.8789044-11.5790749 16.4162426-2.3854179z" fill="#feed32"/><g fill="#ffcb08"><path d="m50.9190788 26.5945587v24.7994652l7.341568-9.9238243z"/><path d="m50.9190788 51.3940239 23.7578163-7.5384064-11.87891 11.5790749z"/><path d="m65.6022186 71.7845993-14.6831398-7.7193756v-12.6711998z"/><path d="m39.0401726 55.4346924 11.8789062-4.0406685-14.6831321 20.3905754z"/><path d="m27.1612682 43.8556175 23.7578106 7.5384064-7.341568-9.9238243z"/></g><g fill="#ececec"><path d="m66.4360046 37.4650383c.2157364.373661.6980209.5029221 1.0716782.2871857l3.9615936-2.2872276c.373703-.2157555.502861-.6980286.2871323-1.0716896-.2157364-.3736649-.6979752-.5029449-1.0716782-.2871895l-3.9615936 2.2872276c-.3736649.2157364-.502861.6980324-.2871323 1.0716934z"/><path d="m58.6523209 31.4106503c.373661.2157326.855957.0865345 1.0716896-.2871284l2.2872314-3.9615955c.2157555-.3736992.0864716-.8559418-.2871895-1.0716763-.373661-.2157345-.8559341-.0865726-1.0716896.2871265l-2.2872314 3.9615955c-.2157326.3736629-.0864754.8559437.2871895 1.0716782z"/><path d="m35.402153 37.4650383c-.2157326.373661-.6980133.5029221-1.0716743.2871857l-3.9615955-2.2872276c-.3736992-.2157555-.502861-.6980286-.2871284-1.0716896.2157345-.3736649.6979771-.5029449 1.0716782-.2871895l3.9615955 2.2872276c.3736609.2157364.5028609.6980324.2871245 1.0716934z"/><path d="m43.1858444 31.4106503c-.3736649.2157326-.8559608.0865345-1.0716934-.2871284l-2.2872276-3.9615955c-.2157555-.3736992-.0864754-.8559418.2871857-1.0716763.373661-.2157345.855938-.0865726 1.0716934.2871265l2.2872276 3.9615955c.2157326.3736629.0864754.8559437-.2871857 1.0716782z"/></g></svg>