<?xml version="1.0" encoding="utf-8"?>
<!-- Generator: Adobe Illustrator 16.0.0, SVG Export Plug-In . SVG Version: 6.00 Build 0)  -->
<!DOCTYPE svg PUBLIC "-//W3C//DTD SVG 1.1//EN" "http://www.w3.org/Graphics/SVG/1.1/DTD/svg11.dtd">
<svg version="1.1" id="Layer_1" focusable="false" xmlns="http://www.w3.org/2000/svg" xmlns:xlink="http://www.w3.org/1999/xlink"
	 x="0px" y="0px" width="400px" height="400px" viewBox="0 0 400 400" enable-background="new 0 0 400 400" xml:space="preserve">
<path fill="#BFBFBF" d="M300,125v-25C300,44.859,255.14,0,200,0c-55.141,0-100,44.859-100,100v25H25v212.5
	c0,34.518,27.982,62.5,62.5,62.5h225c34.518,0,62.5-27.982,62.5-62.5V125H300z M150,100c0-27.57,22.43-50,50-50s50,22.43,50,50v25
	H150V100z M275,193.75c-10.355,0-18.75-8.395-18.75-18.75s8.395-18.75,18.75-18.75s18.75,8.395,18.75,18.75
	S285.355,193.75,275,193.75z M125,193.75c-10.355,0-18.75-8.395-18.75-18.75s8.395-18.75,18.75-18.75s18.75,8.395,18.75,18.75
	S135.355,193.75,125,193.75z"/>
</svg>
