<?xml version="1.0"?>
<svg xmlns="http://www.w3.org/2000/svg" height="512px" viewBox="0 -107 511.9992 511" width="512px" class=""><g><g><path d="m486.1875 285.597656-123.09375-240.566406c-.042969-.082031-.128906-.242188-.25-.457031l-20.460938-39.992188c-1.28125-2.503906-3.863281-4.082031-6.675781-4.082031l-158.707031.007812v296.003907h302.511719c2.609375 0 5.035156-1.359375 6.398437-3.585938 1.363282-2.230469 1.46875-5.003906.277344-7.328125zm0 0" fill="#85c22d" data-original="#4087DF" class="" data-old_color="#85c22d" style="fill:#3B8681"/><path d="m327.632812 285.597656-143.785156-281.011718c-1.285156-2.507813-3.863281-4.085938-6.679687-4.085938-2.8125 0-5.394531 1.578125-6.675781 4.085938l-143.789063 281.011718c-1.191406 2.324219-1.085937 5.101563.277344 7.328125 1.363281 2.226563 3.785156 3.585938 6.398437 3.585938h287.578125c2.613281 0 5.035157-1.359375 6.398438-3.585938 1.363281-2.230469 1.46875-5.003906.277343-7.328125zm0 0" fill="#a2e836" data-original="#679DE1" class="" style="fill:#50A29C" data-old_color="#a2e836"/><path d="m460.246094 296.511719 22.769531-57.90625c3-7.71875 11.6875-11.546875 19.414063-8.542969 7.722656 3 11.546874 11.691406 8.546874 19.414062l-18.460937 47.035157zm0 0" fill="#969287" data-original="#969287" class="" style="fill:#A6A194" data-old_color="#969287"/><path d="m324.722656 296.511719 22.546875-57.90625c3.003907-7.71875 11.695313-11.546875 19.417969-8.542969 7.71875 3 11.546875 11.695312 8.542969 19.414062l-18.273438 47.035157zm0 0" fill="#969287" data-original="#969287" class="" style="fill:#A6A194" data-old_color="#969287"/><path d="m177.167969.5c-2.8125 0-5.394531 1.578125-6.675781 4.085938l-143.789063 281.011718c-1.191406 2.324219-1.085937 5.101563.277344 7.328125 1.363281 2.226563 3.785156 3.585938 6.398437 3.585938h143.792969v-296.011719zm0 0" fill="#bbf743" data-original="#9DC5F7" class="" style="fill:#6ABDB8" data-old_color="#bbf743"/><path d="m20.226562 296.511719-19.261718-51.058594c-2.917969-7.753906 1.003906-16.402344 8.757812-19.320313 7.75-2.917968 16.402344 1.003907 19.320313 8.757813l23.183593 61.621094zm0 0" fill="#969287" data-original="#969287" class="" style="fill:#A6A194" data-old_color="#969287"/><path d="m177.339844 140.789062-67.664063 155.722657h135.324219zm0 0" fill="#6a675f" data-original="#6A675F" class="active-path" style="fill:#6A675F" data-old_color="#6a675f"/><path d="m109.675781 296.511719h67.496094v-155.339844zm0 0" fill="#969287" data-original="#969287" class="" style="fill:#A6A194" data-old_color="#969287"/></g></g> </svg>
