<?xml version="1.0"?>
<svg xmlns="http://www.w3.org/2000/svg" xmlns:xlink="http://www.w3.org/1999/xlink" version="1.1" id="Capa_1" x="0px" y="0px" viewBox="0 0 512.001 512.001" style="enable-background:new 0 0 512.001 512.001;" xml:space="preserve" width="512px" height="512px" class=""><g><g>
	<g>
		<path d="M117.782,15.468c-43.788,0-79.412,35.624-79.412,79.412s35.624,79.411,79.412,79.411s79.412-35.624,79.412-79.411    C197.194,51.093,161.57,15.468,117.782,15.468z" data-original="#000000" class="active-path" data-old_color="#000000" fill="#7E7E7E"/>
	</g>
</g><g>
	<g>
		<path d="M232.945,218.304c-2.845-4.212-7.596-6.738-12.679-6.738H15.299c-5.083,0-9.835,2.525-12.68,6.738    c-2.845,4.212-3.411,9.563-1.51,14.278L103.592,486.95c2.333,5.79,7.948,9.582,14.19,9.582s11.858-3.792,14.19-9.582    l102.483-254.369C236.355,227.866,235.789,222.516,232.945,218.304z" data-original="#000000" class="active-path" data-old_color="#000000" fill="#7E7E7E"/>
	</g>
</g><g>
	<g>
		<path d="M394.219,15.468c-43.788,0-79.411,35.624-79.411,79.412s35.624,79.411,79.411,79.411s79.412-35.624,79.412-79.411    C473.63,51.093,438.007,15.468,394.219,15.468z" data-original="#000000" class="active-path" data-old_color="#000000" fill="#7E7E7E"/>
	</g>
</g><g>
	<g>
		<path d="M510.892,475.517L408.409,221.148c-2.333-5.79-7.948-9.582-14.19-9.582s-11.857,3.792-14.19,9.582L277.546,475.517    c-1.9,4.715-1.334,10.066,1.51,14.278c2.845,4.213,7.596,6.738,12.68,6.738h204.966c5.083,0,9.835-2.525,12.68-6.738    S512.792,480.232,510.892,475.517z" data-original="#000000" class="active-path" data-old_color="#000000" fill="#7E7E7E"/>
	</g>
</g></g> </svg>
