<?xml version="1.0" encoding="utf-8"?>
<!-- Generator: Adobe Illustrator 16.0.0, SVG Export Plug-In . SVG Version: 6.00 Build 0)  -->
<!DOCTYPE svg PUBLIC "-//W3C//DTD SVG 1.1//EN" "http://www.w3.org/Graphics/SVG/1.1/DTD/svg11.dtd">
<svg version="1.1" id="Layer_1" focusable="false" xmlns="http://www.w3.org/2000/svg" xmlns:xlink="http://www.w3.org/1999/xlink"
	 x="0px" y="0px" width="400px" height="400px" viewBox="0 0 400 400" enable-background="new 0 0 400 400" xml:space="preserve">
<path fill="#BFBFBF" d="M200,200c55.234,0,100-44.766,100-100S255.234,0,200,0S100,44.766,100,100S144.766,200,200,200z M270,225
	h-13.047c-17.344,7.969-36.641,12.5-56.953,12.5s-39.531-4.531-56.953-12.5H130c-57.969,0-105,47.031-105,105v32.5
	c0,20.703,16.797,37.5,37.5,37.5h275c20.703,0,37.5-16.797,37.5-37.5V330C375,272.031,327.969,225,270,225z"/>
</svg>
