<?xml version="1.0"?>
<svg xmlns="http://www.w3.org/2000/svg" height="512px" viewBox="0 -31 511.99999 511" width="512px"><g><path d="m256 360.324219c-24.816406 0-45 20.1875-45 45 0 24.816406 20.183594 45 45 45 24.8125 0 45-20.183594 45-45 0-24.8125-20.1875-45-45-45zm0 0" data-original="#000000" class="active-path" data-old_color="#000000" fill="#7E7E7E"/><path d="m256 .5c-92.578125 0-178.410156 30.191406-250.335938 87.289062-6.503906 5.183594-7.539062 14.621094-2.417968 21.082032l20.890625 26.300781c5.191406 6.535156 14.550781 7.371094 21.070312 2.164063 60.222657-48.082032 135.238281-77.011719 218.292969-77.011719 79.023438 0 151.03125 26.078125 209.578125 70.003906 6.496094 4.875 15.691406 3.695313 20.746094-2.664063l14.925781-18.792968c5.132812-6.464844 4.082031-15.902344-2.414062-21.082032-71.925782-57.097656-157.757813-87.289062-250.335938-87.289062zm0 0" data-original="#000000" class="active-path" data-old_color="#000000" fill="#7E7E7E"/><path d="m256 120.457031c-65.257812 0-126.546875 21.3125-177.238281 61.648438-6.339844 5.046875-7.1875 14.519531-2.148438 20.867187l20.851563 26.25c5.261718 6.625 14.742187 7.34375 21.347656 2.058594 39.734375-31.785156 89.957031-50.957031 144.6875-50.957031 50.898438 0 98.027344 16.445312 136.359375 44.292969 6.492187 4.71875 15.558594 3.492187 20.554687-2.796876l14.96875-18.847656c5.128907-6.464844 4.082032-15.902344-2.417968-21.082031-50.636719-40.195313-111.824219-61.433594-176.964844-61.433594zm0 0" data-original="#000000" class="active-path" data-old_color="#000000" fill="#7E7E7E"/><path d="m152.941406 276.4375c-6.21875 4.988281-6.796875 14.375-1.839844 20.621094l20.789063 26.195312c5.066406 6.382813 14.445313 7.738282 20.746094 2.566406 19.339843-15.867187 43.941406-25.496093 70.863281-25.496093 23.253906 0 44.660156 7.347656 62.539062 19.570312 6.234376 4.257813 14.820313 2.410157 19.515626-3.503906l15.34375-19.332031c4.949218-6.242188 4.367187-15.640625-1.847657-20.625-58.605469-46.984375-147.503906-46.984375-206.109375.003906zm0 0" data-original="#000000" class="active-path" data-old_color="#000000" fill="#7E7E7E"/></g> </svg>
